REM DIRINDEX 1\2,1\3,1\4,1\5
REM DIRNAME folder01,folder02,folder03,folder04,folder05
TITLE ""
FILE "1Q_t_0522-0531.mp3" MP3
  TRACK 01 AUDIO
    TITLE "3:cjc004_2468"
    INDEX 01 00:00:00
  TRACK 02 AUDIO
    TITLE "0:"
    INDEX 01 00:01:22
  TRACK 03 AUDIO
    TITLE "4:cjc004_2469"
    INDEX 01 00:01:52
  TRACK 04 AUDIO
    TITLE "0:"
    INDEX 01 00:03:21
  TRACK 05 AUDIO
    TITLE "5:cjc004_2470"
    INDEX 01 00:03:47
  TRACK 06 AUDIO
    TITLE "0:"
    INDEX 01 00:08:17
  TRACK 07 AUDIO
    TITLE "3:cjc004_2471"
    INDEX 01 00:08:73
  TRACK 08 AUDIO
    TITLE "0:"
    INDEX 01 00:10:12
  TRACK 09 AUDIO
    TITLE "4:cjc004_2472"
    INDEX 01 00:10:41
  TRACK 10 AUDIO
    TITLE "0:"
    INDEX 01 00:11:74
  TRACK 11 AUDIO
    TITLE "5:cjc004_2473"
    INDEX 01 00:12:22
  TRACK 12 AUDIO
    TITLE "0:"
    INDEX 01 00:16:69
  TRACK 13 AUDIO
    TITLE "3:cjc004_2474"
    INDEX 01 00:17:45
  TRACK 14 AUDIO
    TITLE "0:"
    INDEX 01 00:18:46
  TRACK 15 AUDIO
    TITLE "4:cjc004_2475"
    INDEX 01 00:19:01
  TRACK 16 AUDIO
    TITLE "0:"
    INDEX 01 00:20:37
  TRACK 17 AUDIO
    TITLE "5:cjc004_2476"
    INDEX 01 00:20:61
  TRACK 18 AUDIO
    TITLE "0:"
    INDEX 01 00:26:03
  TRACK 19 AUDIO
    TITLE "3:cjc004_2477"
    INDEX 01 00:26:56
  TRACK 20 AUDIO
    TITLE "0:"
    INDEX 01 00:27:57
  TRACK 21 AUDIO
    TITLE "4:cjc004_2478"
    INDEX 01 00:28:10
  TRACK 22 AUDIO
    TITLE "0:"
    INDEX 01 00:29:46
  TRACK 23 AUDIO
    TITLE "5:cjc004_2479"
    INDEX 01 00:29:72
  TRACK 24 AUDIO
    TITLE "0:"
    INDEX 01 00:34:45
  TRACK 25 AUDIO
    TITLE "3:cjc004_2480"
    INDEX 01 00:35:25
  TRACK 26 AUDIO
    TITLE "0:"
    INDEX 01 00:36:29
  TRACK 27 AUDIO
    TITLE "4:cjc004_2481"
    INDEX 01 00:36:56
  TRACK 28 AUDIO
    TITLE "0:"
    INDEX 01 00:38:06
  TRACK 29 AUDIO
    TITLE "5:cjc004_2482"
    INDEX 01 00:38:33
  TRACK 30 AUDIO
    TITLE "0:"
    INDEX 01 00:43:11
  TRACK 31 AUDIO
    TITLE "3:cjc004_2483"
    INDEX 01 00:43:62
  TRACK 32 AUDIO
    TITLE "0:"
    INDEX 01 00:44:65
  TRACK 33 AUDIO
    TITLE "4:cjc004_2484"
    INDEX 01 00:45:14
  TRACK 34 AUDIO
    TITLE "0:"
    INDEX 01 00:46:45
  TRACK 35 AUDIO
    TITLE "5:cjc004_2485"
    INDEX 01 00:46:68
  TRACK 36 AUDIO
    TITLE "0:"
    INDEX 01 00:52:30
  TRACK 37 AUDIO
    TITLE "3:cjc004_2486"
    INDEX 01 00:53:09
  TRACK 38 AUDIO
    TITLE "0:"
    INDEX 01 00:54:21
  TRACK 39 AUDIO
    TITLE "4:cjc004_2487"
    INDEX 01 00:54:42
  TRACK 40 AUDIO
    TITLE "0:"
    INDEX 01 00:55:51
  TRACK 41 AUDIO
    TITLE "5:cjc004_2488"
    INDEX 01 00:56:04
  TRACK 42 AUDIO
    TITLE "0:"
    INDEX 01 01:01:48
  TRACK 43 AUDIO
    TITLE "3:cjc004_2489"
    INDEX 01 01:02:30
  TRACK 44 AUDIO
    TITLE "0:"
    INDEX 01 01:03:39
  TRACK 45 AUDIO
    TITLE "4:cjc004_2490"
    INDEX 01 01:03:65
  TRACK 46 AUDIO
    TITLE "0:"
    INDEX 01 01:04:74
  TRACK 47 AUDIO
    TITLE "5:cjc004_2491"
    INDEX 01 01:05:22
  TRACK 48 AUDIO
    TITLE "0:"
    INDEX 01 01:10:63
  TRACK 49 AUDIO
    TITLE "3:cjc004_2492"
    INDEX 01 01:11:41
  TRACK 50 AUDIO
    TITLE "0:"
    INDEX 01 01:12:42
  TRACK 51 AUDIO
    TITLE "4:cjc004_2493"
    INDEX 01 01:13:02
  TRACK 52 AUDIO
    TITLE "0:"
    INDEX 01 01:14:27
  TRACK 53 AUDIO
    TITLE "5:cjc004_2494"
    INDEX 01 01:14:53
  TRACK 54 AUDIO
    TITLE "0:"
    INDEX 01 01:19:15
  TRACK 55 AUDIO
    TITLE "3:cjc004_2495"
    INDEX 01 01:19:66
  TRACK 56 AUDIO
    TITLE "0:"
    INDEX 01 01:20:69
  TRACK 57 AUDIO
    TITLE "4:cjc004_2496"
    INDEX 01 01:21:23
  TRACK 58 AUDIO
    TITLE "0:"
    INDEX 01 01:22:39
  TRACK 59 AUDIO
    TITLE "5:cjc004_2497"
    INDEX 01 01:22:68
  TRACK 60 AUDIO
    TITLE "0:"
    INDEX 01 01:28:12
